<mxfile host="Electron" modified="2023-11-19T02:09:30.228Z" agent="Mozilla/5.0 (Windows NT 10.0; WOW64) AppleWebKit/537.36 (KHTML, like Gecko) draw.io/22.0.3 Chrome/114.0.5735.289 Electron/25.8.4 Safari/537.36" etag="aFmQvdQm69t7weNh62NM" version="22.0.3" type="device">
  <diagram name="Page-1" id="AMEE-uQ7vOZ4AJ6Td8kI">
    <mxGraphModel dx="1713" dy="545" grid="1" gridSize="10" guides="1" tooltips="1" connect="1" arrows="1" fold="1" page="1" pageScale="1" pageWidth="850" pageHeight="1100" math="0" shadow="0">
      <root>
        <mxCell id="0" />
        <mxCell id="1" parent="0" />
        <mxCell id="uNb-5a9olm0jvHo7y-VS-1" value="" style="shape=trapezoid;perimeter=trapezoidPerimeter;whiteSpace=wrap;html=1;fixedSize=1;direction=south;" parent="1" vertex="1">
          <mxGeometry x="261" y="240" width="30" height="80" as="geometry" />
        </mxCell>
        <mxCell id="uNb-5a9olm0jvHo7y-VS-2" value="1" style="text;html=1;align=center;verticalAlign=middle;resizable=0;points=[];autosize=1;strokeColor=none;fillColor=none;" parent="1" vertex="1">
          <mxGeometry x="261" y="250" width="30" height="30" as="geometry" />
        </mxCell>
        <mxCell id="uNb-5a9olm0jvHo7y-VS-3" value="0" style="text;html=1;align=center;verticalAlign=middle;resizable=0;points=[];autosize=1;strokeColor=none;fillColor=none;" parent="1" vertex="1">
          <mxGeometry x="261" y="280" width="30" height="30" as="geometry" />
        </mxCell>
        <mxCell id="uNb-5a9olm0jvHo7y-VS-6" value="" style="endArrow=none;html=1;rounded=0;entryX=-0.062;entryY=0.348;entryDx=0;entryDy=0;entryPerimeter=0;exitX=1.003;exitY=0.102;exitDx=0;exitDy=0;exitPerimeter=0;" parent="1" edge="1">
          <mxGeometry width="50" height="50" relative="1" as="geometry">
            <mxPoint x="61.11000000000013" y="257.74" as="sourcePoint" />
            <mxPoint x="259" y="260" as="targetPoint" />
          </mxGeometry>
        </mxCell>
        <mxCell id="uNb-5a9olm0jvHo7y-VS-9" value="" style="endArrow=none;html=1;rounded=0;entryX=-0.062;entryY=0.348;entryDx=0;entryDy=0;entryPerimeter=0;" parent="1" edge="1">
          <mxGeometry width="50" height="50" relative="1" as="geometry">
            <mxPoint x="291" y="280" as="sourcePoint" />
            <mxPoint x="329" y="280" as="targetPoint" />
          </mxGeometry>
        </mxCell>
        <mxCell id="uNb-5a9olm0jvHo7y-VS-10" value="" style="shape=trapezoid;perimeter=trapezoidPerimeter;whiteSpace=wrap;html=1;fixedSize=1;direction=south;" parent="1" vertex="1">
          <mxGeometry x="260" y="330" width="30" height="80" as="geometry" />
        </mxCell>
        <mxCell id="uNb-5a9olm0jvHo7y-VS-11" value="1" style="text;html=1;align=center;verticalAlign=middle;resizable=0;points=[];autosize=1;strokeColor=none;fillColor=none;" parent="1" vertex="1">
          <mxGeometry x="260" y="340" width="30" height="30" as="geometry" />
        </mxCell>
        <mxCell id="uNb-5a9olm0jvHo7y-VS-12" value="0" style="text;html=1;align=center;verticalAlign=middle;resizable=0;points=[];autosize=1;strokeColor=none;fillColor=none;" parent="1" vertex="1">
          <mxGeometry x="260" y="360" width="30" height="30" as="geometry" />
        </mxCell>
        <mxCell id="uNb-5a9olm0jvHo7y-VS-14" value="" style="endArrow=none;html=1;rounded=0;entryX=-0.062;entryY=0.348;entryDx=0;entryDy=0;entryPerimeter=0;exitX=1.001;exitY=0.342;exitDx=0;exitDy=0;exitPerimeter=0;" parent="1" edge="1">
          <mxGeometry width="50" height="50" relative="1" as="geometry">
            <mxPoint x="60.36999999999989" y="346.53999999999996" as="sourcePoint" />
            <mxPoint x="258" y="350" as="targetPoint" />
          </mxGeometry>
        </mxCell>
        <mxCell id="uNb-5a9olm0jvHo7y-VS-15" value="" style="endArrow=none;html=1;rounded=0;entryX=-0.062;entryY=0.348;entryDx=0;entryDy=0;entryPerimeter=0;" parent="1" edge="1">
          <mxGeometry width="50" height="50" relative="1" as="geometry">
            <mxPoint x="190" y="380.48" as="sourcePoint" />
            <mxPoint x="258" y="380" as="targetPoint" />
          </mxGeometry>
        </mxCell>
        <mxCell id="uNb-5a9olm0jvHo7y-VS-16" value="" style="endArrow=none;html=1;rounded=0;entryX=-0.062;entryY=0.348;entryDx=0;entryDy=0;entryPerimeter=0;" parent="1" edge="1">
          <mxGeometry width="50" height="50" relative="1" as="geometry">
            <mxPoint x="290" y="370" as="sourcePoint" />
            <mxPoint x="328" y="370" as="targetPoint" />
          </mxGeometry>
        </mxCell>
        <mxCell id="uNb-5a9olm0jvHo7y-VS-17" value="tmp1" style="rounded=1;whiteSpace=wrap;html=1;fontStyle=1" parent="1" vertex="1">
          <mxGeometry x="330" y="260" width="90" height="40" as="geometry" />
        </mxCell>
        <mxCell id="uNb-5a9olm0jvHo7y-VS-18" value="tmp2" style="rounded=1;whiteSpace=wrap;html=1;" parent="1" vertex="1">
          <mxGeometry x="330" y="350" width="90" height="40" as="geometry" />
        </mxCell>
        <mxCell id="uNb-5a9olm0jvHo7y-VS-19" value="" style="shape=trapezoid;perimeter=trapezoidPerimeter;whiteSpace=wrap;html=1;fixedSize=1;direction=south;" parent="1" vertex="1">
          <mxGeometry x="261" y="420" width="30" height="80" as="geometry" />
        </mxCell>
        <mxCell id="uNb-5a9olm0jvHo7y-VS-20" value="1" style="text;html=1;align=center;verticalAlign=middle;resizable=0;points=[];autosize=1;strokeColor=none;fillColor=none;" parent="1" vertex="1">
          <mxGeometry x="261" y="430" width="30" height="30" as="geometry" />
        </mxCell>
        <mxCell id="uNb-5a9olm0jvHo7y-VS-21" value="0" style="text;html=1;align=center;verticalAlign=middle;resizable=0;points=[];autosize=1;strokeColor=none;fillColor=none;" parent="1" vertex="1">
          <mxGeometry x="261" y="450" width="30" height="30" as="geometry" />
        </mxCell>
        <mxCell id="uNb-5a9olm0jvHo7y-VS-23" value="" style="endArrow=none;html=1;rounded=0;entryX=-0.062;entryY=0.348;entryDx=0;entryDy=0;entryPerimeter=0;exitX=1;exitY=0.595;exitDx=0;exitDy=0;exitPerimeter=0;" parent="1" edge="1">
          <mxGeometry width="50" height="50" relative="1" as="geometry">
            <mxPoint x="60" y="440.14999999999986" as="sourcePoint" />
            <mxPoint x="259" y="440" as="targetPoint" />
          </mxGeometry>
        </mxCell>
        <mxCell id="uNb-5a9olm0jvHo7y-VS-24" value="" style="endArrow=none;html=1;rounded=0;entryX=-0.062;entryY=0.348;entryDx=0;entryDy=0;entryPerimeter=0;" parent="1" edge="1">
          <mxGeometry width="50" height="50" relative="1" as="geometry">
            <mxPoint x="220" y="470" as="sourcePoint" />
            <mxPoint x="260" y="470" as="targetPoint" />
          </mxGeometry>
        </mxCell>
        <mxCell id="uNb-5a9olm0jvHo7y-VS-25" value="" style="endArrow=none;html=1;rounded=0;entryX=-0.062;entryY=0.348;entryDx=0;entryDy=0;entryPerimeter=0;" parent="1" edge="1">
          <mxGeometry width="50" height="50" relative="1" as="geometry">
            <mxPoint x="291" y="460" as="sourcePoint" />
            <mxPoint x="329" y="460" as="targetPoint" />
          </mxGeometry>
        </mxCell>
        <mxCell id="yps-JSxag7Wt7kW03YaA-4" style="edgeStyle=orthogonalEdgeStyle;rounded=0;orthogonalLoop=1;jettySize=auto;html=1;exitX=1;exitY=0;exitDx=0;exitDy=0;endArrow=none;endFill=0;" edge="1" parent="1" source="uNb-5a9olm0jvHo7y-VS-26">
          <mxGeometry relative="1" as="geometry">
            <mxPoint x="284" y="600" as="targetPoint" />
          </mxGeometry>
        </mxCell>
        <mxCell id="uNb-5a9olm0jvHo7y-VS-26" value="" style="shape=trapezoid;perimeter=trapezoidPerimeter;whiteSpace=wrap;html=1;fixedSize=1;direction=south;" parent="1" vertex="1">
          <mxGeometry x="260" y="510" width="30" height="80" as="geometry" />
        </mxCell>
        <mxCell id="uNb-5a9olm0jvHo7y-VS-27" value="1" style="text;html=1;align=center;verticalAlign=middle;resizable=0;points=[];autosize=1;strokeColor=none;fillColor=none;" parent="1" vertex="1">
          <mxGeometry x="260" y="520" width="30" height="30" as="geometry" />
        </mxCell>
        <mxCell id="uNb-5a9olm0jvHo7y-VS-28" value="0" style="text;html=1;align=center;verticalAlign=middle;resizable=0;points=[];autosize=1;strokeColor=none;fillColor=none;" parent="1" vertex="1">
          <mxGeometry x="260" y="540" width="30" height="30" as="geometry" />
        </mxCell>
        <mxCell id="uNb-5a9olm0jvHo7y-VS-30" value="" style="endArrow=none;html=1;rounded=0;entryX=-0.062;entryY=0.348;entryDx=0;entryDy=0;entryPerimeter=0;exitX=0.998;exitY=0.84;exitDx=0;exitDy=0;exitPerimeter=0;" parent="1" edge="1">
          <mxGeometry width="50" height="50" relative="1" as="geometry">
            <mxPoint x="59.25999999999976" y="530.8" as="sourcePoint" />
            <mxPoint x="258" y="530" as="targetPoint" />
          </mxGeometry>
        </mxCell>
        <mxCell id="uNb-5a9olm0jvHo7y-VS-31" value="" style="endArrow=none;html=1;rounded=0;entryX=-0.062;entryY=0.348;entryDx=0;entryDy=0;entryPerimeter=0;" parent="1" edge="1">
          <mxGeometry width="50" height="50" relative="1" as="geometry">
            <mxPoint x="220" y="560" as="sourcePoint" />
            <mxPoint x="260" y="560" as="targetPoint" />
          </mxGeometry>
        </mxCell>
        <mxCell id="uNb-5a9olm0jvHo7y-VS-32" value="" style="endArrow=none;html=1;rounded=0;entryX=-0.062;entryY=0.348;entryDx=0;entryDy=0;entryPerimeter=0;" parent="1" edge="1">
          <mxGeometry width="50" height="50" relative="1" as="geometry">
            <mxPoint x="290" y="550" as="sourcePoint" />
            <mxPoint x="328" y="550" as="targetPoint" />
          </mxGeometry>
        </mxCell>
        <mxCell id="uNb-5a9olm0jvHo7y-VS-33" value="tmp3" style="rounded=1;whiteSpace=wrap;html=1;fontStyle=1" parent="1" vertex="1">
          <mxGeometry x="330" y="440" width="90" height="40" as="geometry" />
        </mxCell>
        <mxCell id="uNb-5a9olm0jvHo7y-VS-34" value="tmp4" style="rounded=1;whiteSpace=wrap;html=1;" parent="1" vertex="1">
          <mxGeometry x="330" y="530" width="90" height="40" as="geometry" />
        </mxCell>
        <mxCell id="uNb-5a9olm0jvHo7y-VS-45" style="rounded=0;orthogonalLoop=1;jettySize=auto;html=1;exitX=0.25;exitY=0;exitDx=0;exitDy=0;strokeColor=none;" parent="1" source="uNb-5a9olm0jvHo7y-VS-36" edge="1">
          <mxGeometry relative="1" as="geometry">
            <mxPoint x="545" y="280" as="targetPoint" />
          </mxGeometry>
        </mxCell>
        <mxCell id="uNb-5a9olm0jvHo7y-VS-46" style="edgeStyle=orthogonalEdgeStyle;rounded=0;orthogonalLoop=1;jettySize=auto;html=1;exitX=0.25;exitY=0;exitDx=0;exitDy=0;endArrow=oval;endFill=1;" parent="1" edge="1">
          <mxGeometry relative="1" as="geometry">
            <mxPoint x="540" y="280" as="targetPoint" />
            <mxPoint x="540" y="670" as="sourcePoint" />
            <Array as="points">
              <mxPoint x="540" y="475" />
              <mxPoint x="540" y="475" />
            </Array>
          </mxGeometry>
        </mxCell>
        <mxCell id="uNb-5a9olm0jvHo7y-VS-47" style="edgeStyle=orthogonalEdgeStyle;rounded=0;orthogonalLoop=1;jettySize=auto;html=1;exitX=0.5;exitY=0;exitDx=0;exitDy=0;endArrow=oval;endFill=1;" parent="1" edge="1">
          <mxGeometry relative="1" as="geometry">
            <mxPoint x="560.3333333333335" y="370" as="targetPoint" />
            <mxPoint x="560" y="670" as="sourcePoint" />
          </mxGeometry>
        </mxCell>
        <mxCell id="uNb-5a9olm0jvHo7y-VS-48" style="edgeStyle=orthogonalEdgeStyle;rounded=0;orthogonalLoop=1;jettySize=auto;html=1;exitX=0.75;exitY=0;exitDx=0;exitDy=0;endArrow=oval;endFill=1;" parent="1" edge="1">
          <mxGeometry relative="1" as="geometry">
            <mxPoint x="590.6666666666665" y="460" as="targetPoint" />
            <mxPoint x="590" y="670" as="sourcePoint" />
          </mxGeometry>
        </mxCell>
        <mxCell id="uNb-5a9olm0jvHo7y-VS-50" style="edgeStyle=orthogonalEdgeStyle;rounded=0;orthogonalLoop=1;jettySize=auto;html=1;exitX=1;exitY=0;exitDx=0;exitDy=0;endArrow=oval;endFill=1;" parent="1" edge="1">
          <mxGeometry relative="1" as="geometry">
            <mxPoint x="609.9966666666666" y="550" as="targetPoint" />
            <mxPoint x="610.33" y="670" as="sourcePoint" />
            <Array as="points">
              <mxPoint x="610.33" y="620" />
              <mxPoint x="610.33" y="620" />
            </Array>
          </mxGeometry>
        </mxCell>
        <mxCell id="uNb-5a9olm0jvHo7y-VS-57" style="edgeStyle=orthogonalEdgeStyle;rounded=0;orthogonalLoop=1;jettySize=auto;html=1;entryX=0;entryY=0.5;entryDx=0;entryDy=0;endArrow=none;endFill=0;" parent="1" edge="1">
          <mxGeometry relative="1" as="geometry">
            <mxPoint x="573" y="801" as="sourcePoint" />
            <mxPoint x="423" y="880" as="targetPoint" />
          </mxGeometry>
        </mxCell>
        <mxCell id="uNb-5a9olm0jvHo7y-VS-65" style="edgeStyle=orthogonalEdgeStyle;rounded=0;orthogonalLoop=1;jettySize=auto;html=1;exitX=0.5;exitY=1;exitDx=0;exitDy=0;endArrow=none;endFill=0;" parent="1" source="uNb-5a9olm0jvHo7y-VS-36" edge="1">
          <mxGeometry relative="1" as="geometry">
            <mxPoint x="569.6666666666665" y="800" as="targetPoint" />
          </mxGeometry>
        </mxCell>
        <mxCell id="uNb-5a9olm0jvHo7y-VS-36" value="&lt;h2&gt;DECODER&lt;/h2&gt;" style="whiteSpace=wrap;html=1;" parent="1" vertex="1">
          <mxGeometry x="520" y="670" width="100" height="100" as="geometry" />
        </mxCell>
        <mxCell id="uNb-5a9olm0jvHo7y-VS-37" value="&lt;h1&gt;DM&lt;/h1&gt;" style="whiteSpace=wrap;html=1;" parent="1" vertex="1">
          <mxGeometry x="-70" y="230" width="130" height="320" as="geometry" />
        </mxCell>
        <mxCell id="uNb-5a9olm0jvHo7y-VS-38" value="" style="endArrow=none;html=1;rounded=0;exitX=1;exitY=0.5;exitDx=0;exitDy=0;" parent="1" edge="1">
          <mxGeometry width="50" height="50" relative="1" as="geometry">
            <mxPoint x="420" y="458.67" as="sourcePoint" />
            <mxPoint x="900" y="458.67" as="targetPoint" />
          </mxGeometry>
        </mxCell>
        <mxCell id="uNb-5a9olm0jvHo7y-VS-40" value="" style="endArrow=none;html=1;rounded=0;exitX=1;exitY=0.5;exitDx=0;exitDy=0;" parent="1" edge="1">
          <mxGeometry width="50" height="50" relative="1" as="geometry">
            <mxPoint x="420" y="368.66999999999996" as="sourcePoint" />
            <mxPoint x="900" y="368.66999999999996" as="targetPoint" />
          </mxGeometry>
        </mxCell>
        <mxCell id="uNb-5a9olm0jvHo7y-VS-41" value="" style="endArrow=none;html=1;rounded=0;exitX=1;exitY=0.5;exitDx=0;exitDy=0;" parent="1" edge="1">
          <mxGeometry width="50" height="50" relative="1" as="geometry">
            <mxPoint x="420" y="277.34000000000003" as="sourcePoint" />
            <mxPoint x="900" y="277.34000000000003" as="targetPoint" />
          </mxGeometry>
        </mxCell>
        <mxCell id="uNb-5a9olm0jvHo7y-VS-43" value="" style="endArrow=none;html=1;rounded=0;exitX=1;exitY=0.5;exitDx=0;exitDy=0;" parent="1" edge="1">
          <mxGeometry width="50" height="50" relative="1" as="geometry">
            <mxPoint x="420" y="550" as="sourcePoint" />
            <mxPoint x="900" y="550" as="targetPoint" />
          </mxGeometry>
        </mxCell>
        <mxCell id="uNb-5a9olm0jvHo7y-VS-53" style="edgeStyle=orthogonalEdgeStyle;rounded=0;orthogonalLoop=1;jettySize=auto;html=1;endArrow=none;endFill=0;" parent="1" edge="1">
          <mxGeometry relative="1" as="geometry">
            <mxPoint x="170" y="530" as="targetPoint" />
            <mxPoint x="210" y="935" as="sourcePoint" />
          </mxGeometry>
        </mxCell>
        <mxCell id="uNb-5a9olm0jvHo7y-VS-54" style="edgeStyle=orthogonalEdgeStyle;rounded=0;orthogonalLoop=1;jettySize=auto;html=1;endArrow=none;endFill=0;" parent="1" edge="1">
          <mxGeometry relative="1" as="geometry">
            <mxPoint x="119.93" y="350" as="targetPoint" />
            <mxPoint x="210" y="1020" as="sourcePoint" />
            <Array as="points">
              <mxPoint x="209.93" y="1020" />
              <mxPoint x="119.93" y="1020" />
            </Array>
          </mxGeometry>
        </mxCell>
        <mxCell id="uNb-5a9olm0jvHo7y-VS-55" style="edgeStyle=orthogonalEdgeStyle;rounded=0;orthogonalLoop=1;jettySize=auto;html=1;endArrow=none;endFill=0;" parent="1" edge="1">
          <mxGeometry relative="1" as="geometry">
            <mxPoint x="90" y="260" as="targetPoint" />
            <mxPoint x="210" y="1065" as="sourcePoint" />
          </mxGeometry>
        </mxCell>
        <mxCell id="uNb-5a9olm0jvHo7y-VS-56" style="edgeStyle=orthogonalEdgeStyle;rounded=0;orthogonalLoop=1;jettySize=auto;html=1;endArrow=none;endFill=0;" parent="1" edge="1">
          <mxGeometry relative="1" as="geometry">
            <mxPoint x="150" y="440" as="targetPoint" />
            <mxPoint x="210" y="979" as="sourcePoint" />
            <Array as="points">
              <mxPoint x="130" y="979" />
              <mxPoint x="130" y="440" />
            </Array>
          </mxGeometry>
        </mxCell>
        <mxCell id="uNb-5a9olm0jvHo7y-VS-63" value="" style="edgeStyle=orthogonalEdgeStyle;rounded=0;orthogonalLoop=1;jettySize=auto;html=1;endArrow=none;endFill=0;" parent="1" source="uNb-5a9olm0jvHo7y-VS-51" edge="1">
          <mxGeometry relative="1" as="geometry">
            <mxPoint x="528" y="1000" as="targetPoint" />
          </mxGeometry>
        </mxCell>
        <mxCell id="uNb-5a9olm0jvHo7y-VS-51" value="" style="shape=trapezoid;perimeter=trapezoidPerimeter;whiteSpace=wrap;html=1;fixedSize=1;direction=south;" parent="1" vertex="1">
          <mxGeometry x="398" y="870" width="60" height="260" as="geometry" />
        </mxCell>
        <mxCell id="uNb-5a9olm0jvHo7y-VS-58" value="11" style="text;html=1;align=center;verticalAlign=middle;resizable=0;points=[];autosize=1;strokeColor=none;fillColor=none;" parent="1" vertex="1">
          <mxGeometry x="398" y="920" width="40" height="30" as="geometry" />
        </mxCell>
        <mxCell id="uNb-5a9olm0jvHo7y-VS-59" value="10" style="text;html=1;align=center;verticalAlign=middle;resizable=0;points=[];autosize=1;strokeColor=none;fillColor=none;" parent="1" vertex="1">
          <mxGeometry x="398" y="965" width="40" height="30" as="geometry" />
        </mxCell>
        <mxCell id="uNb-5a9olm0jvHo7y-VS-60" value="01" style="text;html=1;align=center;verticalAlign=middle;resizable=0;points=[];autosize=1;strokeColor=none;fillColor=none;" parent="1" vertex="1">
          <mxGeometry x="398" y="1010" width="40" height="30" as="geometry" />
        </mxCell>
        <mxCell id="uNb-5a9olm0jvHo7y-VS-61" value="00" style="text;html=1;align=center;verticalAlign=middle;resizable=0;points=[];autosize=1;strokeColor=none;fillColor=none;" parent="1" vertex="1">
          <mxGeometry x="398" y="1050" width="40" height="30" as="geometry" />
        </mxCell>
        <mxCell id="uNb-5a9olm0jvHo7y-VS-64" value="output" style="text;html=1;align=center;verticalAlign=middle;resizable=0;points=[];autosize=1;strokeColor=none;fillColor=none;" parent="1" vertex="1">
          <mxGeometry x="485" y="968" width="60" height="30" as="geometry" />
        </mxCell>
        <mxCell id="uNb-5a9olm0jvHo7y-VS-66" value="x4" style="rounded=1;whiteSpace=wrap;html=1;" parent="1" vertex="1">
          <mxGeometry x="210" y="917.5" width="70" height="35" as="geometry" />
        </mxCell>
        <mxCell id="uNb-5a9olm0jvHo7y-VS-67" value="x3" style="rounded=1;whiteSpace=wrap;html=1;" parent="1" vertex="1">
          <mxGeometry x="210" y="965" width="70" height="35" as="geometry" />
        </mxCell>
        <mxCell id="uNb-5a9olm0jvHo7y-VS-68" value="x2" style="rounded=1;whiteSpace=wrap;html=1;" parent="1" vertex="1">
          <mxGeometry x="210" y="1005" width="70" height="35" as="geometry" />
        </mxCell>
        <mxCell id="uNb-5a9olm0jvHo7y-VS-69" value="x1" style="rounded=1;whiteSpace=wrap;html=1;" parent="1" vertex="1">
          <mxGeometry x="210" y="1045" width="70" height="35" as="geometry" />
        </mxCell>
        <mxCell id="uNb-5a9olm0jvHo7y-VS-72" style="edgeStyle=orthogonalEdgeStyle;rounded=0;orthogonalLoop=1;jettySize=auto;html=1;exitX=1;exitY=0.5;exitDx=0;exitDy=0;endArrow=none;endFill=0;" parent="1" source="uNb-5a9olm0jvHo7y-VS-66" edge="1">
          <mxGeometry relative="1" as="geometry">
            <mxPoint x="397" y="935" as="targetPoint" />
          </mxGeometry>
        </mxCell>
        <mxCell id="uNb-5a9olm0jvHo7y-VS-75" style="edgeStyle=orthogonalEdgeStyle;rounded=0;orthogonalLoop=1;jettySize=auto;html=1;exitX=1;exitY=0.5;exitDx=0;exitDy=0;entryX=0.04;entryY=0.614;entryDx=0;entryDy=0;entryPerimeter=0;endArrow=none;endFill=0;" parent="1" source="uNb-5a9olm0jvHo7y-VS-67" target="uNb-5a9olm0jvHo7y-VS-59" edge="1">
          <mxGeometry relative="1" as="geometry" />
        </mxCell>
        <mxCell id="uNb-5a9olm0jvHo7y-VS-76" style="edgeStyle=orthogonalEdgeStyle;rounded=0;orthogonalLoop=1;jettySize=auto;html=1;exitX=1;exitY=0.5;exitDx=0;exitDy=0;entryX=0.05;entryY=0.422;entryDx=0;entryDy=0;entryPerimeter=0;endArrow=none;endFill=0;" parent="1" source="uNb-5a9olm0jvHo7y-VS-68" target="uNb-5a9olm0jvHo7y-VS-60" edge="1">
          <mxGeometry relative="1" as="geometry" />
        </mxCell>
        <mxCell id="uNb-5a9olm0jvHo7y-VS-77" style="edgeStyle=orthogonalEdgeStyle;rounded=0;orthogonalLoop=1;jettySize=auto;html=1;exitX=1;exitY=0.5;exitDx=0;exitDy=0;entryX=0.025;entryY=0.427;entryDx=0;entryDy=0;entryPerimeter=0;endArrow=none;endFill=0;" parent="1" source="uNb-5a9olm0jvHo7y-VS-69" target="uNb-5a9olm0jvHo7y-VS-61" edge="1">
          <mxGeometry relative="1" as="geometry" />
        </mxCell>
        <mxCell id="uNb-5a9olm0jvHo7y-VS-79" style="edgeStyle=orthogonalEdgeStyle;rounded=0;orthogonalLoop=1;jettySize=auto;html=1;exitX=0.25;exitY=0;exitDx=0;exitDy=0;endArrow=oval;endFill=1;" parent="1" edge="1">
          <mxGeometry relative="1" as="geometry">
            <mxPoint x="740" y="280" as="targetPoint" />
            <mxPoint x="740" y="670" as="sourcePoint" />
            <Array as="points">
              <mxPoint x="740" y="475" />
              <mxPoint x="740" y="475" />
            </Array>
          </mxGeometry>
        </mxCell>
        <mxCell id="uNb-5a9olm0jvHo7y-VS-80" style="edgeStyle=orthogonalEdgeStyle;rounded=0;orthogonalLoop=1;jettySize=auto;html=1;exitX=0.5;exitY=0;exitDx=0;exitDy=0;endArrow=oval;endFill=1;" parent="1" edge="1">
          <mxGeometry relative="1" as="geometry">
            <mxPoint x="760.3333333333335" y="370" as="targetPoint" />
            <mxPoint x="760" y="670" as="sourcePoint" />
          </mxGeometry>
        </mxCell>
        <mxCell id="uNb-5a9olm0jvHo7y-VS-81" style="edgeStyle=orthogonalEdgeStyle;rounded=0;orthogonalLoop=1;jettySize=auto;html=1;exitX=0.75;exitY=0;exitDx=0;exitDy=0;endArrow=oval;endFill=1;" parent="1" edge="1">
          <mxGeometry relative="1" as="geometry">
            <mxPoint x="790.6666666666665" y="460" as="targetPoint" />
            <mxPoint x="790" y="670" as="sourcePoint" />
          </mxGeometry>
        </mxCell>
        <mxCell id="uNb-5a9olm0jvHo7y-VS-82" style="edgeStyle=orthogonalEdgeStyle;rounded=0;orthogonalLoop=1;jettySize=auto;html=1;exitX=1;exitY=0;exitDx=0;exitDy=0;endArrow=oval;endFill=1;" parent="1" edge="1">
          <mxGeometry relative="1" as="geometry">
            <mxPoint x="809.9966666666666" y="550" as="targetPoint" />
            <mxPoint x="810.33" y="670" as="sourcePoint" />
            <Array as="points">
              <mxPoint x="810.33" y="620" />
              <mxPoint x="810.33" y="620" />
            </Array>
          </mxGeometry>
        </mxCell>
        <mxCell id="yps-JSxag7Wt7kW03YaA-41" style="edgeStyle=orthogonalEdgeStyle;rounded=0;orthogonalLoop=1;jettySize=auto;html=1;exitX=0.5;exitY=1;exitDx=0;exitDy=0;endArrow=none;endFill=0;" edge="1" parent="1" source="uNb-5a9olm0jvHo7y-VS-83">
          <mxGeometry relative="1" as="geometry">
            <mxPoint x="769.8571428571427" y="830" as="targetPoint" />
          </mxGeometry>
        </mxCell>
        <mxCell id="uNb-5a9olm0jvHo7y-VS-83" value="&lt;h2&gt;check&lt;/h2&gt;" style="whiteSpace=wrap;html=1;" parent="1" vertex="1">
          <mxGeometry x="720" y="670" width="100" height="100" as="geometry" />
        </mxCell>
        <mxCell id="uNb-5a9olm0jvHo7y-VS-99" style="edgeStyle=orthogonalEdgeStyle;rounded=0;orthogonalLoop=1;jettySize=auto;html=1;exitX=0;exitY=0.25;exitDx=0;exitDy=0;endArrow=oval;endFill=1;" parent="1" source="uNb-5a9olm0jvHo7y-VS-84" edge="1">
          <mxGeometry relative="1" as="geometry">
            <mxPoint x="880" y="370" as="targetPoint" />
          </mxGeometry>
        </mxCell>
        <mxCell id="uNb-5a9olm0jvHo7y-VS-101" style="edgeStyle=orthogonalEdgeStyle;rounded=0;orthogonalLoop=1;jettySize=auto;html=1;exitX=0;exitY=0.75;exitDx=0;exitDy=0;endArrow=oval;endFill=1;" parent="1" edge="1">
          <mxGeometry relative="1" as="geometry">
            <mxPoint x="860" y="540" as="targetPoint" />
            <mxPoint x="900" y="290" as="sourcePoint" />
          </mxGeometry>
        </mxCell>
        <mxCell id="uNb-5a9olm0jvHo7y-VS-104" style="edgeStyle=orthogonalEdgeStyle;rounded=0;orthogonalLoop=1;jettySize=auto;html=1;exitX=1;exitY=0.5;exitDx=0;exitDy=0;endArrow=none;endFill=0;" parent="1" source="uNb-5a9olm0jvHo7y-VS-84" edge="1">
          <mxGeometry relative="1" as="geometry">
            <mxPoint x="1100" y="279.75757575757575" as="targetPoint" />
          </mxGeometry>
        </mxCell>
        <mxCell id="uNb-5a9olm0jvHo7y-VS-84" value="&lt;h1&gt;PU&lt;/h1&gt;" style="whiteSpace=wrap;html=1;" parent="1" vertex="1">
          <mxGeometry x="900" y="240" width="120" height="80" as="geometry" />
        </mxCell>
        <mxCell id="uNb-5a9olm0jvHo7y-VS-94" style="edgeStyle=orthogonalEdgeStyle;rounded=0;orthogonalLoop=1;jettySize=auto;html=1;exitX=0;exitY=0.25;exitDx=0;exitDy=0;endArrow=oval;endFill=1;" parent="1" source="uNb-5a9olm0jvHo7y-VS-85" edge="1">
          <mxGeometry relative="1" as="geometry">
            <mxPoint x="870" y="349.5" as="targetPoint" />
          </mxGeometry>
        </mxCell>
        <mxCell id="uNb-5a9olm0jvHo7y-VS-103" style="edgeStyle=orthogonalEdgeStyle;rounded=0;orthogonalLoop=1;jettySize=auto;html=1;exitX=0;exitY=0.75;exitDx=0;exitDy=0;endArrow=oval;endFill=1;" parent="1" source="uNb-5a9olm0jvHo7y-VS-85" edge="1">
          <mxGeometry relative="1" as="geometry">
            <mxPoint x="860" y="380" as="targetPoint" />
            <Array as="points">
              <mxPoint x="900" y="380" />
            </Array>
          </mxGeometry>
        </mxCell>
        <mxCell id="uNb-5a9olm0jvHo7y-VS-85" value="&lt;h1&gt;PU&lt;/h1&gt;" style="whiteSpace=wrap;html=1;" parent="1" vertex="1">
          <mxGeometry x="900" y="330" width="120" height="80" as="geometry" />
        </mxCell>
        <mxCell id="uNb-5a9olm0jvHo7y-VS-95" style="edgeStyle=orthogonalEdgeStyle;rounded=0;orthogonalLoop=1;jettySize=auto;html=1;exitX=0;exitY=0.25;exitDx=0;exitDy=0;endArrow=oval;endFill=1;" parent="1" source="uNb-5a9olm0jvHo7y-VS-86" edge="1">
          <mxGeometry relative="1" as="geometry">
            <mxPoint x="870" y="430" as="targetPoint" />
            <Array as="points">
              <mxPoint x="900" y="430" />
            </Array>
          </mxGeometry>
        </mxCell>
        <mxCell id="uNb-5a9olm0jvHo7y-VS-98" style="edgeStyle=orthogonalEdgeStyle;rounded=0;orthogonalLoop=1;jettySize=auto;html=1;exitX=0;exitY=0.25;exitDx=0;exitDy=0;endArrow=oval;endFill=1;" parent="1" source="uNb-5a9olm0jvHo7y-VS-86" edge="1">
          <mxGeometry relative="1" as="geometry">
            <mxPoint x="840" y="440.1449275362319" as="targetPoint" />
          </mxGeometry>
        </mxCell>
        <mxCell id="uNb-5a9olm0jvHo7y-VS-102" style="edgeStyle=orthogonalEdgeStyle;rounded=0;orthogonalLoop=1;jettySize=auto;html=1;exitX=0;exitY=0.75;exitDx=0;exitDy=0;endArrow=oval;endFill=1;" parent="1" source="uNb-5a9olm0jvHo7y-VS-86" edge="1">
          <mxGeometry relative="1" as="geometry">
            <mxPoint x="860" y="470" as="targetPoint" />
            <Array as="points">
              <mxPoint x="900" y="470" />
            </Array>
          </mxGeometry>
        </mxCell>
        <mxCell id="uNb-5a9olm0jvHo7y-VS-86" value="&lt;h1&gt;PU&lt;/h1&gt;" style="whiteSpace=wrap;html=1;" parent="1" vertex="1">
          <mxGeometry x="900" y="420" width="120" height="80" as="geometry" />
        </mxCell>
        <mxCell id="uNb-5a9olm0jvHo7y-VS-93" style="edgeStyle=orthogonalEdgeStyle;rounded=0;orthogonalLoop=1;jettySize=auto;html=1;exitX=0;exitY=0.25;exitDx=0;exitDy=0;endArrow=none;endFill=0;" parent="1" edge="1">
          <mxGeometry relative="1" as="geometry">
            <mxPoint x="870" y="279.51" as="targetPoint" />
            <mxPoint x="900" y="519.51" as="sourcePoint" />
          </mxGeometry>
        </mxCell>
        <mxCell id="uNb-5a9olm0jvHo7y-VS-96" style="edgeStyle=orthogonalEdgeStyle;rounded=0;orthogonalLoop=1;jettySize=auto;html=1;exitX=0;exitY=0.25;exitDx=0;exitDy=0;endArrow=oval;endFill=1;" parent="1" source="uNb-5a9olm0jvHo7y-VS-87" edge="1">
          <mxGeometry relative="1" as="geometry">
            <mxPoint x="840" y="370" as="targetPoint" />
          </mxGeometry>
        </mxCell>
        <mxCell id="uNb-5a9olm0jvHo7y-VS-100" style="edgeStyle=orthogonalEdgeStyle;rounded=0;orthogonalLoop=1;jettySize=auto;html=1;exitX=0;exitY=0.75;exitDx=0;exitDy=0;endArrow=oval;endFill=1;" parent="1" edge="1">
          <mxGeometry relative="1" as="geometry">
            <mxPoint x="820" y="450" as="targetPoint" />
            <mxPoint x="900" y="560" as="sourcePoint" />
          </mxGeometry>
        </mxCell>
        <mxCell id="uNb-5a9olm0jvHo7y-VS-114" style="edgeStyle=orthogonalEdgeStyle;rounded=0;orthogonalLoop=1;jettySize=auto;html=1;exitX=0;exitY=0.75;exitDx=0;exitDy=0;endArrow=none;endFill=0;" parent="1" source="uNb-5a9olm0jvHo7y-VS-87" edge="1">
          <mxGeometry relative="1" as="geometry">
            <mxPoint x="770" y="200" as="targetPoint" />
          </mxGeometry>
        </mxCell>
        <mxCell id="uNb-5a9olm0jvHo7y-VS-87" value="&lt;h1&gt;PU&lt;/h1&gt;" style="whiteSpace=wrap;html=1;" parent="1" vertex="1">
          <mxGeometry x="900" y="510" width="120" height="80" as="geometry" />
        </mxCell>
        <mxCell id="uNb-5a9olm0jvHo7y-VS-119" style="edgeStyle=orthogonalEdgeStyle;rounded=0;orthogonalLoop=1;jettySize=auto;html=1;exitX=1;exitY=0.5;exitDx=0;exitDy=0;endArrow=none;endFill=0;entryX=-0.057;entryY=0.523;entryDx=0;entryDy=0;entryPerimeter=0;" parent="1" source="uNb-5a9olm0jvHo7y-VS-107" target="uNb-5a9olm0jvHo7y-VS-3" edge="1">
          <mxGeometry relative="1" as="geometry">
            <mxPoint x="220" y="290" as="targetPoint" />
            <Array as="points">
              <mxPoint x="1240" y="280" />
              <mxPoint x="1240" y="70" />
              <mxPoint x="150" y="70" />
              <mxPoint x="150" y="296" />
              <mxPoint x="220" y="296" />
            </Array>
          </mxGeometry>
        </mxCell>
        <mxCell id="uNb-5a9olm0jvHo7y-VS-107" value="&lt;h1&gt;ReLU&lt;/h1&gt;" style="whiteSpace=wrap;html=1;" parent="1" vertex="1">
          <mxGeometry x="1100" y="240" width="120" height="80" as="geometry" />
        </mxCell>
        <mxCell id="uNb-5a9olm0jvHo7y-VS-108" style="edgeStyle=orthogonalEdgeStyle;rounded=0;orthogonalLoop=1;jettySize=auto;html=1;exitX=1;exitY=0.5;exitDx=0;exitDy=0;endArrow=none;endFill=0;" parent="1" edge="1">
          <mxGeometry relative="1" as="geometry">
            <mxPoint x="1100" y="369.75757575757575" as="targetPoint" />
            <mxPoint x="1020" y="370" as="sourcePoint" />
          </mxGeometry>
        </mxCell>
        <mxCell id="uNb-5a9olm0jvHo7y-VS-121" style="edgeStyle=orthogonalEdgeStyle;rounded=0;orthogonalLoop=1;jettySize=auto;html=1;exitX=1;exitY=0.5;exitDx=0;exitDy=0;endArrow=none;endFill=0;" parent="1" source="uNb-5a9olm0jvHo7y-VS-109" edge="1">
          <mxGeometry relative="1" as="geometry">
            <mxPoint x="1300" y="100" as="targetPoint" />
          </mxGeometry>
        </mxCell>
        <mxCell id="uNb-5a9olm0jvHo7y-VS-109" value="&lt;h1&gt;ReLU&lt;/h1&gt;" style="whiteSpace=wrap;html=1;" parent="1" vertex="1">
          <mxGeometry x="1100" y="330" width="120" height="80" as="geometry" />
        </mxCell>
        <mxCell id="uNb-5a9olm0jvHo7y-VS-110" style="edgeStyle=orthogonalEdgeStyle;rounded=0;orthogonalLoop=1;jettySize=auto;html=1;exitX=1;exitY=0.5;exitDx=0;exitDy=0;endArrow=none;endFill=0;" parent="1" edge="1">
          <mxGeometry relative="1" as="geometry">
            <mxPoint x="1100" y="459.75757575757575" as="targetPoint" />
            <mxPoint x="1020" y="460" as="sourcePoint" />
          </mxGeometry>
        </mxCell>
        <mxCell id="uNb-5a9olm0jvHo7y-VS-124" style="edgeStyle=orthogonalEdgeStyle;rounded=0;orthogonalLoop=1;jettySize=auto;html=1;exitX=1;exitY=0.5;exitDx=0;exitDy=0;endArrow=none;endFill=0;" parent="1" source="uNb-5a9olm0jvHo7y-VS-111" edge="1">
          <mxGeometry relative="1" as="geometry">
            <mxPoint x="220" y="470" as="targetPoint" />
            <Array as="points">
              <mxPoint x="1240" y="460" />
              <mxPoint x="1240" y="625" />
              <mxPoint x="200" y="625" />
              <mxPoint x="200" y="470" />
            </Array>
          </mxGeometry>
        </mxCell>
        <mxCell id="uNb-5a9olm0jvHo7y-VS-111" value="&lt;h1&gt;ReLU&lt;/h1&gt;" style="whiteSpace=wrap;html=1;" parent="1" vertex="1">
          <mxGeometry x="1100" y="420" width="120" height="80" as="geometry" />
        </mxCell>
        <mxCell id="uNb-5a9olm0jvHo7y-VS-112" style="edgeStyle=orthogonalEdgeStyle;rounded=0;orthogonalLoop=1;jettySize=auto;html=1;exitX=1;exitY=0.5;exitDx=0;exitDy=0;endArrow=none;endFill=0;" parent="1" edge="1">
          <mxGeometry relative="1" as="geometry">
            <mxPoint x="1100" y="549.7575757575758" as="targetPoint" />
            <mxPoint x="1020" y="550" as="sourcePoint" />
          </mxGeometry>
        </mxCell>
        <mxCell id="uNb-5a9olm0jvHo7y-VS-125" style="edgeStyle=orthogonalEdgeStyle;rounded=0;orthogonalLoop=1;jettySize=auto;html=1;exitX=1;exitY=0.5;exitDx=0;exitDy=0;endArrow=none;endFill=0;" parent="1" source="uNb-5a9olm0jvHo7y-VS-113" edge="1">
          <mxGeometry relative="1" as="geometry">
            <mxPoint x="1280" y="660.3403943650266" as="targetPoint" />
          </mxGeometry>
        </mxCell>
        <mxCell id="uNb-5a9olm0jvHo7y-VS-113" value="&lt;h1&gt;ReLU&lt;/h1&gt;" style="whiteSpace=wrap;html=1;" parent="1" vertex="1">
          <mxGeometry x="1100" y="510" width="120" height="80" as="geometry" />
        </mxCell>
        <mxCell id="uNb-5a9olm0jvHo7y-VS-115" value="&lt;h1&gt;Matrix&lt;/h1&gt;" style="whiteSpace=wrap;html=1;" parent="1" vertex="1">
          <mxGeometry x="740" y="120" width="120" height="80" as="geometry" />
        </mxCell>
        <mxCell id="uNb-5a9olm0jvHo7y-VS-116" style="edgeStyle=orthogonalEdgeStyle;rounded=0;orthogonalLoop=1;jettySize=auto;html=1;exitX=0;exitY=0.75;exitDx=0;exitDy=0;entryX=0.327;entryY=1.001;entryDx=0;entryDy=0;entryPerimeter=0;endArrow=none;endFill=0;" parent="1" source="uNb-5a9olm0jvHo7y-VS-84" target="uNb-5a9olm0jvHo7y-VS-115" edge="1">
          <mxGeometry relative="1" as="geometry" />
        </mxCell>
        <mxCell id="uNb-5a9olm0jvHo7y-VS-117" style="edgeStyle=orthogonalEdgeStyle;rounded=0;orthogonalLoop=1;jettySize=auto;html=1;exitX=0;exitY=0.75;exitDx=0;exitDy=0;entryX=0.417;entryY=1;entryDx=0;entryDy=0;entryPerimeter=0;endArrow=none;endFill=0;" parent="1" source="uNb-5a9olm0jvHo7y-VS-85" target="uNb-5a9olm0jvHo7y-VS-115" edge="1">
          <mxGeometry relative="1" as="geometry" />
        </mxCell>
        <mxCell id="uNb-5a9olm0jvHo7y-VS-118" style="edgeStyle=orthogonalEdgeStyle;rounded=0;orthogonalLoop=1;jettySize=auto;html=1;exitX=0;exitY=0.75;exitDx=0;exitDy=0;entryX=0.48;entryY=0.989;entryDx=0;entryDy=0;entryPerimeter=0;endArrow=none;endFill=0;" parent="1" source="uNb-5a9olm0jvHo7y-VS-86" target="uNb-5a9olm0jvHo7y-VS-115" edge="1">
          <mxGeometry relative="1" as="geometry" />
        </mxCell>
        <mxCell id="uNb-5a9olm0jvHo7y-VS-122" value="" style="endArrow=none;html=1;rounded=0;" parent="1" edge="1">
          <mxGeometry width="50" height="50" relative="1" as="geometry">
            <mxPoint x="190" y="100" as="sourcePoint" />
            <mxPoint x="1300" y="100" as="targetPoint" />
          </mxGeometry>
        </mxCell>
        <mxCell id="uNb-5a9olm0jvHo7y-VS-123" value="" style="endArrow=none;html=1;rounded=0;" parent="1" edge="1">
          <mxGeometry width="50" height="50" relative="1" as="geometry">
            <mxPoint x="190" y="380" as="sourcePoint" />
            <mxPoint x="190" y="100" as="targetPoint" />
          </mxGeometry>
        </mxCell>
        <mxCell id="uNb-5a9olm0jvHo7y-VS-126" value="" style="endArrow=none;html=1;rounded=0;" parent="1" edge="1">
          <mxGeometry width="50" height="50" relative="1" as="geometry">
            <mxPoint x="220" y="660" as="sourcePoint" />
            <mxPoint x="1281.021442819149" y="660" as="targetPoint" />
          </mxGeometry>
        </mxCell>
        <mxCell id="uNb-5a9olm0jvHo7y-VS-127" value="" style="endArrow=none;html=1;rounded=0;" parent="1" edge="1">
          <mxGeometry width="50" height="50" relative="1" as="geometry">
            <mxPoint x="220" y="660" as="sourcePoint" />
            <mxPoint x="220" y="560" as="targetPoint" />
          </mxGeometry>
        </mxCell>
        <mxCell id="yps-JSxag7Wt7kW03YaA-5" value="selTmp" style="text;html=1;align=center;verticalAlign=middle;resizable=0;points=[];autosize=1;strokeColor=none;fillColor=none;" vertex="1" parent="1">
          <mxGeometry x="260" y="590" width="60" height="30" as="geometry" />
        </mxCell>
        <mxCell id="yps-JSxag7Wt7kW03YaA-6" style="edgeStyle=orthogonalEdgeStyle;rounded=0;orthogonalLoop=1;jettySize=auto;html=1;endArrow=none;endFill=0;exitX=0.317;exitY=-0.064;exitDx=0;exitDy=0;exitPerimeter=0;" edge="1" parent="1" source="yps-JSxag7Wt7kW03YaA-7">
          <mxGeometry relative="1" as="geometry">
            <mxPoint x="280" y="500" as="targetPoint" />
            <mxPoint x="280" y="484" as="sourcePoint" />
          </mxGeometry>
        </mxCell>
        <mxCell id="yps-JSxag7Wt7kW03YaA-7" value="selTmp" style="text;html=1;align=center;verticalAlign=middle;resizable=0;points=[];autosize=1;strokeColor=none;fillColor=none;" vertex="1" parent="1">
          <mxGeometry x="261" y="490" width="60" height="30" as="geometry" />
        </mxCell>
        <mxCell id="yps-JSxag7Wt7kW03YaA-11" style="edgeStyle=orthogonalEdgeStyle;rounded=0;orthogonalLoop=1;jettySize=auto;html=1;endArrow=none;endFill=0;exitX=0.317;exitY=-0.064;exitDx=0;exitDy=0;exitPerimeter=0;" edge="1" parent="1" source="yps-JSxag7Wt7kW03YaA-12">
          <mxGeometry relative="1" as="geometry">
            <mxPoint x="275" y="412" as="targetPoint" />
            <mxPoint x="275" y="396" as="sourcePoint" />
          </mxGeometry>
        </mxCell>
        <mxCell id="yps-JSxag7Wt7kW03YaA-12" value="selTmp" style="text;html=1;align=center;verticalAlign=middle;resizable=0;points=[];autosize=1;strokeColor=none;fillColor=none;" vertex="1" parent="1">
          <mxGeometry x="256" y="402" width="60" height="30" as="geometry" />
        </mxCell>
        <mxCell id="yps-JSxag7Wt7kW03YaA-15" style="edgeStyle=orthogonalEdgeStyle;rounded=0;orthogonalLoop=1;jettySize=auto;html=1;endArrow=none;endFill=0;exitX=0.317;exitY=-0.064;exitDx=0;exitDy=0;exitPerimeter=0;" edge="1" parent="1" source="yps-JSxag7Wt7kW03YaA-16">
          <mxGeometry relative="1" as="geometry">
            <mxPoint x="276" y="321.91999999999996" as="targetPoint" />
            <mxPoint x="276" y="305.91999999999996" as="sourcePoint" />
          </mxGeometry>
        </mxCell>
        <mxCell id="yps-JSxag7Wt7kW03YaA-16" value="selTmp" style="text;html=1;align=center;verticalAlign=middle;resizable=0;points=[];autosize=1;strokeColor=none;fillColor=none;" vertex="1" parent="1">
          <mxGeometry x="257" y="311.91999999999996" width="60" height="30" as="geometry" />
        </mxCell>
        <mxCell id="yps-JSxag7Wt7kW03YaA-19" value="readData[0]" style="text;html=1;align=center;verticalAlign=middle;resizable=0;points=[];autosize=1;strokeColor=none;fillColor=none;" vertex="1" parent="1">
          <mxGeometry x="60" y="230" width="90" height="30" as="geometry" />
        </mxCell>
        <mxCell id="yps-JSxag7Wt7kW03YaA-20" value="readData[2]" style="text;html=1;align=center;verticalAlign=middle;resizable=0;points=[];autosize=1;strokeColor=none;fillColor=none;" vertex="1" parent="1">
          <mxGeometry x="120" y="410" width="90" height="30" as="geometry" />
        </mxCell>
        <mxCell id="yps-JSxag7Wt7kW03YaA-21" value="readData[1]" style="text;html=1;align=center;verticalAlign=middle;resizable=0;points=[];autosize=1;strokeColor=none;fillColor=none;" vertex="1" parent="1">
          <mxGeometry x="80" y="320" width="90" height="30" as="geometry" />
        </mxCell>
        <mxCell id="yps-JSxag7Wt7kW03YaA-22" value="readData[3]" style="text;html=1;align=center;verticalAlign=middle;resizable=0;points=[];autosize=1;strokeColor=none;fillColor=none;" vertex="1" parent="1">
          <mxGeometry x="120" y="500" width="90" height="30" as="geometry" />
        </mxCell>
        <mxCell id="yps-JSxag7Wt7kW03YaA-23" value="relu1Out" style="text;html=1;align=center;verticalAlign=middle;resizable=0;points=[];autosize=1;strokeColor=none;fillColor=none;" vertex="1" parent="1">
          <mxGeometry x="191" y="270" width="70" height="30" as="geometry" />
        </mxCell>
        <mxCell id="yps-JSxag7Wt7kW03YaA-24" value="relu2Out" style="text;html=1;align=center;verticalAlign=middle;resizable=0;points=[];autosize=1;strokeColor=none;fillColor=none;" vertex="1" parent="1">
          <mxGeometry x="191" y="350" width="70" height="30" as="geometry" />
        </mxCell>
        <mxCell id="yps-JSxag7Wt7kW03YaA-25" value="relu3Out" style="text;html=1;align=center;verticalAlign=middle;resizable=0;points=[];autosize=1;strokeColor=none;fillColor=none;" vertex="1" parent="1">
          <mxGeometry x="191" y="445" width="70" height="30" as="geometry" />
        </mxCell>
        <mxCell id="yps-JSxag7Wt7kW03YaA-26" value="relu4Out" style="text;html=1;align=center;verticalAlign=middle;resizable=0;points=[];autosize=1;strokeColor=none;fillColor=none;" vertex="1" parent="1">
          <mxGeometry x="191" y="530" width="70" height="30" as="geometry" />
        </mxCell>
        <mxCell id="yps-JSxag7Wt7kW03YaA-27" value="x1Out" style="text;html=1;align=center;verticalAlign=middle;resizable=0;points=[];autosize=1;strokeColor=none;fillColor=none;" vertex="1" parent="1">
          <mxGeometry x="300" y="908" width="60" height="30" as="geometry" />
        </mxCell>
        <mxCell id="yps-JSxag7Wt7kW03YaA-28" value="x2Out" style="text;html=1;align=center;verticalAlign=middle;resizable=0;points=[];autosize=1;strokeColor=none;fillColor=none;" vertex="1" parent="1">
          <mxGeometry x="300" y="952.5" width="60" height="30" as="geometry" />
        </mxCell>
        <mxCell id="yps-JSxag7Wt7kW03YaA-30" value="x3Out" style="text;html=1;align=center;verticalAlign=middle;resizable=0;points=[];autosize=1;strokeColor=none;fillColor=none;" vertex="1" parent="1">
          <mxGeometry x="300" y="998" width="60" height="30" as="geometry" />
        </mxCell>
        <mxCell id="yps-JSxag7Wt7kW03YaA-31" value="x4Out" style="text;html=1;align=center;verticalAlign=middle;resizable=0;points=[];autosize=1;strokeColor=none;fillColor=none;" vertex="1" parent="1">
          <mxGeometry x="300" y="1038" width="60" height="30" as="geometry" />
        </mxCell>
        <mxCell id="yps-JSxag7Wt7kW03YaA-32" value="decodeOut" style="text;html=1;align=center;verticalAlign=middle;resizable=0;points=[];autosize=1;strokeColor=none;fillColor=none;" vertex="1" parent="1">
          <mxGeometry x="460" y="778" width="80" height="30" as="geometry" />
        </mxCell>
        <mxCell id="yps-JSxag7Wt7kW03YaA-33" value="&lt;h6&gt;mux1Out&lt;/h6&gt;" style="text;html=1;align=center;verticalAlign=middle;resizable=0;points=[];autosize=1;strokeColor=none;fillColor=none;" vertex="1" parent="1">
          <mxGeometry x="280" y="240" width="60" height="60" as="geometry" />
        </mxCell>
        <mxCell id="yps-JSxag7Wt7kW03YaA-34" value="&lt;h6&gt;mux2Out&lt;/h6&gt;" style="text;html=1;align=center;verticalAlign=middle;resizable=0;points=[];autosize=1;strokeColor=none;fillColor=none;" vertex="1" parent="1">
          <mxGeometry x="280" y="330" width="60" height="60" as="geometry" />
        </mxCell>
        <mxCell id="yps-JSxag7Wt7kW03YaA-35" value="&lt;h6&gt;mux3Out&lt;/h6&gt;" style="text;html=1;align=center;verticalAlign=middle;resizable=0;points=[];autosize=1;strokeColor=none;fillColor=none;" vertex="1" parent="1">
          <mxGeometry x="280" y="420" width="60" height="60" as="geometry" />
        </mxCell>
        <mxCell id="yps-JSxag7Wt7kW03YaA-36" value="&lt;h6&gt;mux4Out&lt;/h6&gt;" style="text;html=1;align=center;verticalAlign=middle;resizable=0;points=[];autosize=1;strokeColor=none;fillColor=none;" vertex="1" parent="1">
          <mxGeometry x="280" y="510" width="60" height="60" as="geometry" />
        </mxCell>
        <mxCell id="yps-JSxag7Wt7kW03YaA-37" value="val1" style="text;html=1;align=center;verticalAlign=middle;resizable=0;points=[];autosize=1;strokeColor=none;fillColor=none;" vertex="1" parent="1">
          <mxGeometry x="435" y="250" width="50" height="30" as="geometry" />
        </mxCell>
        <mxCell id="yps-JSxag7Wt7kW03YaA-38" value="val2" style="text;html=1;align=center;verticalAlign=middle;resizable=0;points=[];autosize=1;strokeColor=none;fillColor=none;" vertex="1" parent="1">
          <mxGeometry x="438" y="340" width="50" height="30" as="geometry" />
        </mxCell>
        <mxCell id="yps-JSxag7Wt7kW03YaA-39" value="val3" style="text;html=1;align=center;verticalAlign=middle;resizable=0;points=[];autosize=1;strokeColor=none;fillColor=none;" vertex="1" parent="1">
          <mxGeometry x="438" y="430" width="50" height="30" as="geometry" />
        </mxCell>
        <mxCell id="yps-JSxag7Wt7kW03YaA-40" value="val4" style="text;html=1;align=center;verticalAlign=middle;resizable=0;points=[];autosize=1;strokeColor=none;fillColor=none;" vertex="1" parent="1">
          <mxGeometry x="438" y="520" width="50" height="30" as="geometry" />
        </mxCell>
        <mxCell id="yps-JSxag7Wt7kW03YaA-42" value="done" style="text;html=1;align=center;verticalAlign=middle;resizable=0;points=[];autosize=1;strokeColor=none;fillColor=none;" vertex="1" parent="1">
          <mxGeometry x="745" y="830" width="50" height="30" as="geometry" />
        </mxCell>
        <mxCell id="yps-JSxag7Wt7kW03YaA-43" value="PU1Out" style="text;html=1;align=center;verticalAlign=middle;resizable=0;points=[];autosize=1;strokeColor=none;fillColor=none;" vertex="1" parent="1">
          <mxGeometry x="1025" y="248" width="70" height="30" as="geometry" />
        </mxCell>
        <mxCell id="yps-JSxag7Wt7kW03YaA-44" value="PU2Out" style="text;html=1;align=center;verticalAlign=middle;resizable=0;points=[];autosize=1;strokeColor=none;fillColor=none;" vertex="1" parent="1">
          <mxGeometry x="1025" y="340" width="70" height="30" as="geometry" />
        </mxCell>
        <mxCell id="yps-JSxag7Wt7kW03YaA-45" value="PU3Out" style="text;html=1;align=center;verticalAlign=middle;resizable=0;points=[];autosize=1;strokeColor=none;fillColor=none;" vertex="1" parent="1">
          <mxGeometry x="1025" y="430" width="70" height="30" as="geometry" />
        </mxCell>
        <mxCell id="yps-JSxag7Wt7kW03YaA-46" value="PU4Out" style="text;html=1;align=center;verticalAlign=middle;resizable=0;points=[];autosize=1;strokeColor=none;fillColor=none;" vertex="1" parent="1">
          <mxGeometry x="1025" y="522" width="70" height="30" as="geometry" />
        </mxCell>
      </root>
    </mxGraphModel>
  </diagram>
</mxfile>
